# xmcd CD database file
#
# Track frame offsets:
#	150
#	17252
#	37551
#	54004
#	75349
#	94960
#	113064
#	127915
#	145042
#	161320
#	176268
#	191793
#	213235
#
# Disc length: 3048 seconds
#
# Revision: 0
# Processed by: cddbd v1.5.2PL0 Copyright (c) Steve Scherf et al.
# Submitted via: CDex 1.51
#
DISCID=890be60d
DTITLE=Molly Johnson - If You know love
DYEAR=2007
DGENRE=Jazz
TTITLE0=if You know love
TTITLE1=let's waste some time
TTITLE2=tristers souvenirs
TTITLE3=let's do it
TTITLE4=stick and stones 
TTITLE5=rain
TTITLE6=Streets of Philadelphia 
TTITLE7=Sunday
TTITLE8=messin' around
TTITLE9=tonight
TTITLE10=but not for me
TTITLE11=nothern star
TTITLE12=Avignon blues
EXTD=YEAR: 2007
EXTT0=
EXTT1=
EXTT2=
EXTT3=
EXTT4=
EXTT5=
EXTT6=
EXTT7=
EXTT8=
EXTT9=
EXTT10=
EXTT11=
EXTT12=
PLAYORDER=
